<svg width="16" height="14" viewBox="0 0 16 14" fill="none" xmlns="http://www.w3.org/2000/svg">
<path d="M3.52913 7.31844L2.97565 8.86817C2.90458 9.06716 2.71609 9.2 2.50478 9.2H1.58618C1.09733 9.2 0.898965 9.82928 1.29945 10.1096L1.97332 10.5813C2.15782 10.7105 2.23321 10.947 2.15746 11.1591L1.69988 12.4403C1.53335 12.9066 2.07317 13.3054 2.4699 13.0091L3.70086 12.09C3.87828 11.9575 4.12172 11.9575 4.29915 12.09L5.53011 13.0091C5.92683 13.3054 6.46665 12.9066 6.30012 12.4403L5.84254 11.1591C5.76679 10.947 5.84218 10.7105 6.02668 10.5813L6.70055 10.1096C7.10104 9.82928 6.90267 9.2 6.41382 9.2H5.49522C5.28391 9.2 5.09542 9.06716 5.02435 8.86817L4.47087 7.31844C4.31286 6.876 3.68714 6.876 3.52913 7.31844Z" fill="white"/>
<path d="M7.52913 1.31844L6.97565 2.86817C6.90458 3.06716 6.71609 3.2 6.50478 3.2H5.58618C5.09733 3.2 4.89897 3.82928 5.29945 4.10962L5.97332 4.58133C6.15782 4.71047 6.23321 4.94702 6.15746 5.15911L5.69988 6.44034C5.53335 6.90661 6.07317 7.30537 6.4699 7.00914L7.70086 6.09003C7.87828 5.95755 8.12172 5.95755 8.29914 6.09003L9.53011 7.00914C9.92683 7.30537 10.4666 6.90661 10.3001 6.44034L9.84254 5.15911C9.76679 4.94702 9.84218 4.71047 10.0267 4.58133L10.7005 4.10962C11.101 3.82928 10.9027 3.2 10.4138 3.2H9.49522C9.28391 3.2 9.09542 3.06716 9.02435 2.86817L8.47087 1.31844C8.31286 0.875996 7.68714 0.875997 7.52913 1.31844Z" fill="white"/>
<path d="M11.5291 7.31844L10.9757 8.86817C10.9046 9.06716 10.7161 9.2 10.5048 9.2H9.58618C9.09733 9.2 8.89897 9.82928 9.29945 10.1096L9.97332 10.5813C10.1578 10.7105 10.2332 10.947 10.1575 11.1591L9.69988 12.4403C9.53335 12.9066 10.0732 13.3054 10.4699 13.0091L11.7009 12.09C11.8783 11.9575 12.1217 11.9575 12.2991 12.09L13.5301 13.0091C13.9268 13.3054 14.4666 12.9066 14.3001 12.4403L13.8425 11.1591C13.7668 10.947 13.8422 10.7105 14.0267 10.5813L14.7005 10.1096C15.101 9.82928 14.9027 9.2 14.4138 9.2H13.4952C13.2839 9.2 13.0954 9.06716 13.0243 8.86817L12.4709 7.31844C12.3129 6.876 11.6871 6.876 11.5291 7.31844Z" fill="white"/>
</svg>
